<svg xmlns="http://www.w3.org/2000/svg" viewBox="0 0 32 32"><defs><linearGradient id="g" x1="0" y1="0" x2="1" y2="1"><stop offset="0" stop-color="#1d4b3d"/><stop offset=".55" stop-color="#0f3127"/><stop offset="1" stop-color="#0c1210"/></linearGradient></defs><rect width="32" height="32" rx="8" fill="url(#g)"/><rect x="1" y="1" width="30" height="30" rx="7" fill="none" stroke="#d5f94e" stroke-opacity=".45"/><path fill="#d5f94e" d="M16 6l8.5 3.2v6.1c0 5.3-3.6 8.9-8.5 10.7-4.9-1.8-8.5-5.4-8.5-10.7V9.2L16 6z"/><path fill="#0f3127" d="M16 8.4l6.6 2.5v4.4c0 4.2-2.8 7.1-6.6 8.6-3.8-1.5-6.6-4.4-6.6-8.6v-4.4L16 8.4z"/><path fill="#d5f94e" d="M12.2 15.4l2.6 2.6 5-5.2 1.4 1.4-6.4 6.6-4-4 1.4-1.4z"/></svg>
